<svg xmlns="http://www.w3.org/2000/svg" viewBox="0 0 700 1400" preserveAspectRatio="xMidYMid" width="700" height="1400" xmlns:xlink="http://www.w3.org/1999/xlink" style="shape-rendering:auto;display:block;background-position-x:0%;background-position-y:0%;background-size:auto;background-origin:padding-box;background-clip:border-box;background:scroll rgb(255, 178, 91) none  repeat;width:700px;height:1400px;;animation:none"><g><g transform="matrix(1,0,0,1,-4.9883575439453125,389.88568115234375) matrix(-0.45449822527884787,0.8907476428362736,-0.8907476428362736,-0.45449822527884787,117.26229340575607,28.187529122128712)" style="transform:matrix(-0.454498, 0.890748, -0.890748, -0.454498, 112.274, 418.073);;animation:none"><path transform="matrix(0.6667855381965637,0,0,0.6667855381965637,0,0)" fill="#ff956e" d="M87.422,66.495c-2.009-0.544-4.049-0.97-6.107-1.283c10.617-11.116,15.747-27.37,13.129-42.549 c-5.236,1.77-10.223,4.252-14.824,7.313c-4.13,2.747-7.948,5.961-11.374,9.55C67.425,24.863,61.344,10.451,50.991,0 c-4.015,5.451-7.281,11.444-9.753,17.744c-3.579,9.122-5.501,18.893-5.669,28.691c-4.79-7.979-11.256-14.955-18.858-20.322 c-4.514-3.187-9.431-5.806-14.616-7.72c-3.361,16.717,2.731,35.015,15.445,46.379c0.369,0.33,0.745,0.654,1.126,0.972 c-2.359,0.411-4.689,0.983-6.969,1.714C7.582,68.775,3.634,70.61,0,72.945c8.85,9.963,23.134,14.771,36.208,12.186 c3.524-0.697,7.002-1.919,9.887-4.057c0.073-0.054,0.145-0.111,0.218-0.167c-0.987,5.662-2.714,11.136-5.104,16.221l7.509,2.806 c1.698-5.797,2.631-11.748,2.814-17.669c0.107,0.076,0.215,0.152,0.324,0.225c3.142,2.114,6.863,3.232,10.607,3.796 C76.352,88.379,91.161,82.628,100,71.71C96.061,69.427,91.816,67.684,87.422,66.495z" style="fill:rgb(255, 149, 110);transform:matrix(0.666786, 0, 0, 0.666786, 0, 0);;animation:none"></path></g>
<g transform="matrix(1,0,0,1,511.5120849609375,1637.928955078125) matrix(-0.15654599186457768,-0.9876706700267734,0.9876706700267734,-0.15654599186457768,8.443766091890211,107.21083309456756)" style="transform:matrix(-0.156546, -0.987671, 0.987671, -0.156546, 519.956, 1745.14);;animation:none"><path transform="matrix(0.6863900423049927,0,0,0.6863900423049927,0,0)" fill="#ffc46c" d="M87.422,66.495c-2.009-0.544-4.049-0.97-6.107-1.283c10.617-11.116,15.747-27.37,13.129-42.549 c-5.236,1.77-10.223,4.252-14.824,7.313c-4.13,2.747-7.948,5.961-11.374,9.55C67.425,24.863,61.344,10.451,50.991,0 c-4.015,5.451-7.281,11.444-9.753,17.744c-3.579,9.122-5.501,18.893-5.669,28.691c-4.79-7.979-11.256-14.955-18.858-20.322 c-4.514-3.187-9.431-5.806-14.616-7.72c-3.361,16.717,2.731,35.015,15.445,46.379c0.369,0.33,0.745,0.654,1.126,0.972 c-2.359,0.411-4.689,0.983-6.969,1.714C7.582,68.775,3.634,70.61,0,72.945c8.85,9.963,23.134,14.771,36.208,12.186 c3.524-0.697,7.002-1.919,9.887-4.057c0.073-0.054,0.145-0.111,0.218-0.167c-0.987,5.662-2.714,11.136-5.104,16.221l7.509,2.806 c1.698-5.797,2.631-11.748,2.814-17.669c0.107,0.076,0.215,0.152,0.324,0.225c3.142,2.114,6.863,3.232,10.607,3.796 C76.352,88.379,91.161,82.628,100,71.71C96.061,69.427,91.816,67.684,87.422,66.495z" style="fill:rgb(255, 196, 108);transform:matrix(0.68639, 0, 0, 0.68639, 0, 0);;animation:none"></path></g>
<g transform="matrix(1,0,0,1,613.6405029296875,1850.863037109375) matrix(0.9470219658518892,0.32116879704296186,-0.32116879704296186,0.9470219658518892,18.70734155955363,-13.409538144742555)" style="transform:matrix(0.947022, 0.321169, -0.321169, 0.947022, 632.348, 1837.45);;animation:none"><path transform="matrix(0.5381162762641907,0,0,0.5381162762641907,0,0)" fill="#ff9f32" d="M87.422,66.495c-2.009-0.544-4.049-0.97-6.107-1.283c10.617-11.116,15.747-27.37,13.129-42.549 c-5.236,1.77-10.223,4.252-14.824,7.313c-4.13,2.747-7.948,5.961-11.374,9.55C67.425,24.863,61.344,10.451,50.991,0 c-4.015,5.451-7.281,11.444-9.753,17.744c-3.579,9.122-5.501,18.893-5.669,28.691c-4.79-7.979-11.256-14.955-18.858-20.322 c-4.514-3.187-9.431-5.806-14.616-7.72c-3.361,16.717,2.731,35.015,15.445,46.379c0.369,0.33,0.745,0.654,1.126,0.972 c-2.359,0.411-4.689,0.983-6.969,1.714C7.582,68.775,3.634,70.61,0,72.945c8.85,9.963,23.134,14.771,36.208,12.186 c3.524-0.697,7.002-1.919,9.887-4.057c0.073-0.054,0.145-0.111,0.218-0.167c-0.987,5.662-2.714,11.136-5.104,16.221l7.509,2.806 c1.698-5.797,2.631-11.748,2.814-17.669c0.107,0.076,0.215,0.152,0.324,0.225c3.142,2.114,6.863,3.232,10.607,3.796 C76.352,88.379,91.161,82.628,100,71.71C96.061,69.427,91.816,67.684,87.422,66.495z" style="fill:rgb(255, 159, 50);transform:matrix(0.538116, 0, 0, 0.538116, 0, 0);;animation:none"></path></g>
<g transform="matrix(1,0,0,1,827.4304809570312,373.35308837890625) matrix(-0.3523273132364004,0.9358768425106049,-0.9358768425106049,-0.3523273132364004,114.41020778735026,20.822523536289772)" style="transform:matrix(-0.352327, 0.935877, -0.935877, -0.352327, 941.841, 394.176);;animation:none"><path transform="matrix(1.047800064086914,0,0,1.047800064086914,0,0)" fill="#ff9f32" d="M87.422,66.495c-2.009-0.544-4.049-0.97-6.107-1.283c10.617-11.116,15.747-27.37,13.129-42.549 c-5.236,1.77-10.223,4.252-14.824,7.313c-4.13,2.747-7.948,5.961-11.374,9.55C67.425,24.863,61.344,10.451,50.991,0 c-4.015,5.451-7.281,11.444-9.753,17.744c-3.579,9.122-5.501,18.893-5.669,28.691c-4.79-7.979-11.256-14.955-18.858-20.322 c-4.514-3.187-9.431-5.806-14.616-7.72c-3.361,16.717,2.731,35.015,15.445,46.379c0.369,0.33,0.745,0.654,1.126,0.972 c-2.359,0.411-4.689,0.983-6.969,1.714C7.582,68.775,3.634,70.61,0,72.945c8.85,9.963,23.134,14.771,36.208,12.186 c3.524-0.697,7.002-1.919,9.887-4.057c0.073-0.054,0.145-0.111,0.218-0.167c-0.987,5.662-2.714,11.136-5.104,16.221l7.509,2.806 c1.698-5.797,2.631-11.748,2.814-17.669c0.107,0.076,0.215,0.152,0.324,0.225c3.142,2.114,6.863,3.232,10.607,3.796 C76.352,88.379,91.161,82.628,100,71.71C96.061,69.427,91.816,67.684,87.422,66.495z" style="fill:rgb(255, 159, 50);transform:matrix(1.0478, 0, 0, 1.0478, 0, 0);;animation:none"></path></g>
<g transform="matrix(1,0,0,1,525.000732421875,601.9107666015625) matrix(-0.5251187681951581,-0.8510289532614033,0.8510289532614033,-0.5251187681951581,33.70449074668774,118.80738607282807)" style="transform:matrix(-0.525119, -0.851029, 0.851029, -0.525119, 558.705, 720.718);;animation:none"><path transform="matrix(1.016819715499878,0,0,1.016819715499878,0,0)" fill="#ff956e" d="M87.422,66.495c-2.009-0.544-4.049-0.97-6.107-1.283c10.617-11.116,15.747-27.37,13.129-42.549 c-5.236,1.77-10.223,4.252-14.824,7.313c-4.13,2.747-7.948,5.961-11.374,9.55C67.425,24.863,61.344,10.451,50.991,0 c-4.015,5.451-7.281,11.444-9.753,17.744c-3.579,9.122-5.501,18.893-5.669,28.691c-4.79-7.979-11.256-14.955-18.858-20.322 c-4.514-3.187-9.431-5.806-14.616-7.72c-3.361,16.717,2.731,35.015,15.445,46.379c0.369,0.33,0.745,0.654,1.126,0.972 c-2.359,0.411-4.689,0.983-6.969,1.714C7.582,68.775,3.634,70.61,0,72.945c8.85,9.963,23.134,14.771,36.208,12.186 c3.524-0.697,7.002-1.919,9.887-4.057c0.073-0.054,0.145-0.111,0.218-0.167c-0.987,5.662-2.714,11.136-5.104,16.221l7.509,2.806 c1.698-5.797,2.631-11.748,2.814-17.669c0.107,0.076,0.215,0.152,0.324,0.225c3.142,2.114,6.863,3.232,10.607,3.796 C76.352,88.379,91.161,82.628,100,71.71C96.061,69.427,91.816,67.684,87.422,66.495z" style="fill:rgb(255, 149, 110);transform:matrix(1.01682, 0, 0, 1.01682, 0, 0);;animation:none"></path></g>
<g transform="matrix(1,0,0,1,426.3454284667969,375.0532531738281) matrix(-0.24436383248114685,-0.9696836171531032,0.9696836171531032,-0.24436383248114685,13.734010766402179,110.7023724817125)" style="transform:matrix(-0.244364, -0.969684, 0.969684, -0.244364, 440.079, 485.756);;animation:none"><path transform="matrix(0.7577622532844543,0,0,0.7577622532844543,0,0)" fill="#ff956e" d="M87.422,66.495c-2.009-0.544-4.049-0.97-6.107-1.283c10.617-11.116,15.747-27.37,13.129-42.549 c-5.236,1.77-10.223,4.252-14.824,7.313c-4.13,2.747-7.948,5.961-11.374,9.55C67.425,24.863,61.344,10.451,50.991,0 c-4.015,5.451-7.281,11.444-9.753,17.744c-3.579,9.122-5.501,18.893-5.669,28.691c-4.79-7.979-11.256-14.955-18.858-20.322 c-4.514-3.187-9.431-5.806-14.616-7.72c-3.361,16.717,2.731,35.015,15.445,46.379c0.369,0.33,0.745,0.654,1.126,0.972 c-2.359,0.411-4.689,0.983-6.969,1.714C7.582,68.775,3.634,70.61,0,72.945c8.85,9.963,23.134,14.771,36.208,12.186 c3.524-0.697,7.002-1.919,9.887-4.057c0.073-0.054,0.145-0.111,0.218-0.167c-0.987,5.662-2.714,11.136-5.104,16.221l7.509,2.806 c1.698-5.797,2.631-11.748,2.814-17.669c0.107,0.076,0.215,0.152,0.324,0.225c3.142,2.114,6.863,3.232,10.607,3.796 C76.352,88.379,91.161,82.628,100,71.71C96.061,69.427,91.816,67.684,87.422,66.495z" style="fill:rgb(255, 149, 110);transform:matrix(0.757762, 0, 0, 0.757762, 0, 0);;animation:none"></path></g>
<g transform="matrix(1,0,0,1,778.1536865234375,1561.3128662109375) matrix(-0.7337900805045012,0.6793762711143196,-0.6793762711143196,-0.7337900805045012,120.65831758094104,52.72069046950908)" style="transform:matrix(-0.73379, 0.679376, -0.679376, -0.73379, 898.812, 1614.03);;animation:none"><path transform="matrix(0.622366189956665,0,0,0.622366189956665,0,0)" fill="#ff9f32" d="M87.422,66.495c-2.009-0.544-4.049-0.97-6.107-1.283c10.617-11.116,15.747-27.37,13.129-42.549 c-5.236,1.77-10.223,4.252-14.824,7.313c-4.13,2.747-7.948,5.961-11.374,9.55C67.425,24.863,61.344,10.451,50.991,0 c-4.015,5.451-7.281,11.444-9.753,17.744c-3.579,9.122-5.501,18.893-5.669,28.691c-4.79-7.979-11.256-14.955-18.858-20.322 c-4.514-3.187-9.431-5.806-14.616-7.72c-3.361,16.717,2.731,35.015,15.445,46.379c0.369,0.33,0.745,0.654,1.126,0.972 c-2.359,0.411-4.689,0.983-6.969,1.714C7.582,68.775,3.634,70.61,0,72.945c8.85,9.963,23.134,14.771,36.208,12.186 c3.524-0.697,7.002-1.919,9.887-4.057c0.073-0.054,0.145-0.111,0.218-0.167c-0.987,5.662-2.714,11.136-5.104,16.221l7.509,2.806 c1.698-5.797,2.631-11.748,2.814-17.669c0.107,0.076,0.215,0.152,0.324,0.225c3.142,2.114,6.863,3.232,10.607,3.796 C76.352,88.379,91.161,82.628,100,71.71C96.061,69.427,91.816,67.684,87.422,66.495z" style="fill:rgb(255, 159, 50);transform:matrix(0.622366, 0, 0, 0.622366, 0, 0);;animation:none"></path></g>
<g transform="matrix(1,0,0,1,704.6904907226562,1595.9010009765625) matrix(0.3216084226261702,-0.9468727594011281,0.9468727594011281,0.3216084226261702,-13.424059101364918,81.2632168387479)" style="transform:matrix(0.321608, -0.946873, 0.946873, 0.321608, 691.266, 1677.16);;animation:none"><path transform="matrix(0.6156582236289978,0,0,0.6156582236289978,0,0)" fill="#f86161" d="M87.422,66.495c-2.009-0.544-4.049-0.97-6.107-1.283c10.617-11.116,15.747-27.37,13.129-42.549 c-5.236,1.77-10.223,4.252-14.824,7.313c-4.13,2.747-7.948,5.961-11.374,9.55C67.425,24.863,61.344,10.451,50.991,0 c-4.015,5.451-7.281,11.444-9.753,17.744c-3.579,9.122-5.501,18.893-5.669,28.691c-4.79-7.979-11.256-14.955-18.858-20.322 c-4.514-3.187-9.431-5.806-14.616-7.72c-3.361,16.717,2.731,35.015,15.445,46.379c0.369,0.33,0.745,0.654,1.126,0.972 c-2.359,0.411-4.689,0.983-6.969,1.714C7.582,68.775,3.634,70.61,0,72.945c8.85,9.963,23.134,14.771,36.208,12.186 c3.524-0.697,7.002-1.919,9.887-4.057c0.073-0.054,0.145-0.111,0.218-0.167c-0.987,5.662-2.714,11.136-5.104,16.221l7.509,2.806 c1.698-5.797,2.631-11.748,2.814-17.669c0.107,0.076,0.215,0.152,0.324,0.225c3.142,2.114,6.863,3.232,10.607,3.796 C76.352,88.379,91.161,82.628,100,71.71C96.061,69.427,91.816,67.684,87.422,66.495z" style="fill:rgb(248, 97, 97);transform:matrix(0.615658, 0, 0, 0.615658, 0, 0);;animation:none"></path></g>
<g transform="matrix(1,0,0,1,383.8277282714844,1262.5980224609375) matrix(-0.8448792104061852,-0.534957119611863,0.534957119611863,-0.8448792104061852,65.4961045397161,118.99181650090242)" style="transform:matrix(-0.844879, -0.534957, 0.534957, -0.844879, 449.324, 1381.59);;animation:none"><path transform="matrix(1.0813820362091064,0,0,1.0813820362091064,0,0)" fill="#f86161" d="M87.422,66.495c-2.009-0.544-4.049-0.97-6.107-1.283c10.617-11.116,15.747-27.37,13.129-42.549 c-5.236,1.77-10.223,4.252-14.824,7.313c-4.13,2.747-7.948,5.961-11.374,9.55C67.425,24.863,61.344,10.451,50.991,0 c-4.015,5.451-7.281,11.444-9.753,17.744c-3.579,9.122-5.501,18.893-5.669,28.691c-4.79-7.979-11.256-14.955-18.858-20.322 c-4.514-3.187-9.431-5.806-14.616-7.72c-3.361,16.717,2.731,35.015,15.445,46.379c0.369,0.33,0.745,0.654,1.126,0.972 c-2.359,0.411-4.689,0.983-6.969,1.714C7.582,68.775,3.634,70.61,0,72.945c8.85,9.963,23.134,14.771,36.208,12.186 c3.524-0.697,7.002-1.919,9.887-4.057c0.073-0.054,0.145-0.111,0.218-0.167c-0.987,5.662-2.714,11.136-5.104,16.221l7.509,2.806 c1.698-5.797,2.631-11.748,2.814-17.669c0.107,0.076,0.215,0.152,0.324,0.225c3.142,2.114,6.863,3.232,10.607,3.796 C76.352,88.379,91.161,82.628,100,71.71C96.061,69.427,91.816,67.684,87.422,66.495z" style="fill:rgb(248, 97, 97);transform:matrix(1.08138, 0, 0, 1.08138, 0, 0);;animation:none"></path></g>
<g transform="matrix(1,0,0,1,566.9744873046875,663.376708984375) matrix(0.8327929413199592,-0.5535846068015721,0.5535846068015721,0.8327929413199592,-19.318877406076552,36.03958327408065)" style="transform:matrix(0.832793, -0.553585, 0.553585, 0.832793, 547.656, 699.416);;animation:none"><path transform="matrix(0.5951428413391113,0,0,0.5951428413391113,0,0)" fill="#ffc46c" d="M87.422,66.495c-2.009-0.544-4.049-0.97-6.107-1.283c10.617-11.116,15.747-27.37,13.129-42.549 c-5.236,1.77-10.223,4.252-14.824,7.313c-4.13,2.747-7.948,5.961-11.374,9.55C67.425,24.863,61.344,10.451,50.991,0 c-4.015,5.451-7.281,11.444-9.753,17.744c-3.579,9.122-5.501,18.893-5.669,28.691c-4.79-7.979-11.256-14.955-18.858-20.322 c-4.514-3.187-9.431-5.806-14.616-7.72c-3.361,16.717,2.731,35.015,15.445,46.379c0.369,0.33,0.745,0.654,1.126,0.972 c-2.359,0.411-4.689,0.983-6.969,1.714C7.582,68.775,3.634,70.61,0,72.945c8.85,9.963,23.134,14.771,36.208,12.186 c3.524-0.697,7.002-1.919,9.887-4.057c0.073-0.054,0.145-0.111,0.218-0.167c-0.987,5.662-2.714,11.136-5.104,16.221l7.509,2.806 c1.698-5.797,2.631-11.748,2.814-17.669c0.107,0.076,0.215,0.152,0.324,0.225c3.142,2.114,6.863,3.232,10.607,3.796 C76.352,88.379,91.161,82.628,100,71.71C96.061,69.427,91.816,67.684,87.422,66.495z" style="fill:rgb(255, 196, 108);transform:matrix(0.595143, 0, 0, 0.595143, 0, 0);;animation:none"></path></g>
<g transform="matrix(1,0,0,1,419.3476867675781,731.0703735351562) matrix(0.9418101583109416,0.33614524494973774,-0.33614524494973774,0.9418101583109416,19.716754331939807,-13.897770163033968)" style="transform:matrix(0.94181, 0.336145, -0.336145, 0.94181, 439.064, 717.173);;animation:none"><path transform="matrix(0.7934894561767578,0,0,0.7934894561767578,0,0)" fill="#ff9f32" d="M87.422,66.495c-2.009-0.544-4.049-0.97-6.107-1.283c10.617-11.116,15.747-27.37,13.129-42.549 c-5.236,1.77-10.223,4.252-14.824,7.313c-4.13,2.747-7.948,5.961-11.374,9.55C67.425,24.863,61.344,10.451,50.991,0 c-4.015,5.451-7.281,11.444-9.753,17.744c-3.579,9.122-5.501,18.893-5.669,28.691c-4.79-7.979-11.256-14.955-18.858-20.322 c-4.514-3.187-9.431-5.806-14.616-7.72c-3.361,16.717,2.731,35.015,15.445,46.379c0.369,0.33,0.745,0.654,1.126,0.972 c-2.359,0.411-4.689,0.983-6.969,1.714C7.582,68.775,3.634,70.61,0,72.945c8.85,9.963,23.134,14.771,36.208,12.186 c3.524-0.697,7.002-1.919,9.887-4.057c0.073-0.054,0.145-0.111,0.218-0.167c-0.987,5.662-2.714,11.136-5.104,16.221l7.509,2.806 c1.698-5.797,2.631-11.748,2.814-17.669c0.107,0.076,0.215,0.152,0.324,0.225c3.142,2.114,6.863,3.232,10.607,3.796 C76.352,88.379,91.161,82.628,100,71.71C96.061,69.427,91.816,67.684,87.422,66.495z" style="fill:rgb(255, 159, 50);transform:matrix(0.793489, 0, 0, 0.793489, 0, 0);;animation:none"></path></g>
<g transform="matrix(1,0,0,1,996.4921875,1203.4171142578125) matrix(-0.5514732027522828,0.8341926076429469,-0.8341926076429469,-0.5514732027522828,119.2832905197615,35.864029755466795)" style="transform:matrix(-0.551473, 0.834193, -0.834193, -0.551473, 1115.78, 1239.28);;animation:none"><path transform="matrix(0.9255169034004211,0,0,0.9255169034004211,0,0)" fill="#ffc46c" d="M87.422,66.495c-2.009-0.544-4.049-0.97-6.107-1.283c10.617-11.116,15.747-27.37,13.129-42.549 c-5.236,1.77-10.223,4.252-14.824,7.313c-4.13,2.747-7.948,5.961-11.374,9.55C67.425,24.863,61.344,10.451,50.991,0 c-4.015,5.451-7.281,11.444-9.753,17.744c-3.579,9.122-5.501,18.893-5.669,28.691c-4.79-7.979-11.256-14.955-18.858-20.322 c-4.514-3.187-9.431-5.806-14.616-7.72c-3.361,16.717,2.731,35.015,15.445,46.379c0.369,0.33,0.745,0.654,1.126,0.972 c-2.359,0.411-4.689,0.983-6.969,1.714C7.582,68.775,3.634,70.61,0,72.945c8.85,9.963,23.134,14.771,36.208,12.186 c3.524-0.697,7.002-1.919,9.887-4.057c0.073-0.054,0.145-0.111,0.218-0.167c-0.987,5.662-2.714,11.136-5.104,16.221l7.509,2.806 c1.698-5.797,2.631-11.748,2.814-17.669c0.107,0.076,0.215,0.152,0.324,0.225c3.142,2.114,6.863,3.232,10.607,3.796 C76.352,88.379,91.161,82.628,100,71.71C96.061,69.427,91.816,67.684,87.422,66.495z" style="fill:rgb(255, 196, 108);transform:matrix(0.925517, 0, 0, 0.925517, 0, 0);;animation:none"></path></g>
<g transform="matrix(1,0,0,1,269.53131103515625,1162.65966796875) matrix(-0.24517953354799182,-0.9694776925381982,0.9694776925381982,-0.24517953354799182,13.78509205048968,110.7328613043095)" style="transform:matrix(-0.24518, -0.969478, 0.969478, -0.24518, 283.316, 1273.39);;animation:none"><path transform="matrix(0.6965019106864929,0,0,0.6965019106864929,0,0)" fill="#ffc46c" d="M87.422,66.495c-2.009-0.544-4.049-0.97-6.107-1.283c10.617-11.116,15.747-27.37,13.129-42.549 c-5.236,1.77-10.223,4.252-14.824,7.313c-4.13,2.747-7.948,5.961-11.374,9.55C67.425,24.863,61.344,10.451,50.991,0 c-4.015,5.451-7.281,11.444-9.753,17.744c-3.579,9.122-5.501,18.893-5.669,28.691c-4.79-7.979-11.256-14.955-18.858-20.322 c-4.514-3.187-9.431-5.806-14.616-7.72c-3.361,16.717,2.731,35.015,15.445,46.379c0.369,0.33,0.745,0.654,1.126,0.972 c-2.359,0.411-4.689,0.983-6.969,1.714C7.582,68.775,3.634,70.61,0,72.945c8.85,9.963,23.134,14.771,36.208,12.186 c3.524-0.697,7.002-1.919,9.887-4.057c0.073-0.054,0.145-0.111,0.218-0.167c-0.987,5.662-2.714,11.136-5.104,16.221l7.509,2.806 c1.698-5.797,2.631-11.748,2.814-17.669c0.107,0.076,0.215,0.152,0.324,0.225c3.142,2.114,6.863,3.232,10.607,3.796 C76.352,88.379,91.161,82.628,100,71.71C96.061,69.427,91.816,67.684,87.422,66.495z" style="fill:rgb(255, 196, 108);transform:matrix(0.696502, 0, 0, 0.696502, 0, 0);;animation:none"></path></g>
<g transform="matrix(1,0,0,1,11.0084228515625,773.1923828125) matrix(0.7996136805850718,0.6005147473802743,-0.6005147473802743,0.7996136805850718,40.04505333976013,-20.006421398267307)" style="transform:matrix(0.799614, 0.600515, -0.600515, 0.799614, 51.0535, 753.186);;animation:none"><path transform="matrix(0.980414867401123,0,0,0.980414867401123,0,0)" fill="#ff956e" d="M87.422,66.495c-2.009-0.544-4.049-0.97-6.107-1.283c10.617-11.116,15.747-27.37,13.129-42.549 c-5.236,1.77-10.223,4.252-14.824,7.313c-4.13,2.747-7.948,5.961-11.374,9.55C67.425,24.863,61.344,10.451,50.991,0 c-4.015,5.451-7.281,11.444-9.753,17.744c-3.579,9.122-5.501,18.893-5.669,28.691c-4.79-7.979-11.256-14.955-18.858-20.322 c-4.514-3.187-9.431-5.806-14.616-7.72c-3.361,16.717,2.731,35.015,15.445,46.379c0.369,0.33,0.745,0.654,1.126,0.972 c-2.359,0.411-4.689,0.983-6.969,1.714C7.582,68.775,3.634,70.61,0,72.945c8.85,9.963,23.134,14.771,36.208,12.186 c3.524-0.697,7.002-1.919,9.887-4.057c0.073-0.054,0.145-0.111,0.218-0.167c-0.987,5.662-2.714,11.136-5.104,16.221l7.509,2.806 c1.698-5.797,2.631-11.748,2.814-17.669c0.107,0.076,0.215,0.152,0.324,0.225c3.142,2.114,6.863,3.232,10.607,3.796 C76.352,88.379,91.161,82.628,100,71.71C96.061,69.427,91.816,67.684,87.422,66.495z" style="fill:rgb(255, 149, 110);transform:matrix(0.980415, 0, 0, 0.980415, 0, 0);;animation:none"></path></g>
<g transform="matrix(1,0,0,1,623.1312255859375,1175.88671875) matrix(0.9890473124830392,0.14759882679099198,-0.14759882679099198,0.9890473124830392,7.927575715397637,-6.832306963701555)" style="transform:matrix(0.989047, 0.147599, -0.147599, 0.989047, 631.059, 1169.05);;animation:none"><path transform="matrix(0.563592255115509,0,0,0.563592255115509,0,0)" fill="#f86161" d="M87.422,66.495c-2.009-0.544-4.049-0.97-6.107-1.283c10.617-11.116,15.747-27.37,13.129-42.549 c-5.236,1.77-10.223,4.252-14.824,7.313c-4.13,2.747-7.948,5.961-11.374,9.55C67.425,24.863,61.344,10.451,50.991,0 c-4.015,5.451-7.281,11.444-9.753,17.744c-3.579,9.122-5.501,18.893-5.669,28.691c-4.79-7.979-11.256-14.955-18.858-20.322 c-4.514-3.187-9.431-5.806-14.616-7.72c-3.361,16.717,2.731,35.015,15.445,46.379c0.369,0.33,0.745,0.654,1.126,0.972 c-2.359,0.411-4.689,0.983-6.969,1.714C7.582,68.775,3.634,70.61,0,72.945c8.85,9.963,23.134,14.771,36.208,12.186 c3.524-0.697,7.002-1.919,9.887-4.057c0.073-0.054,0.145-0.111,0.218-0.167c-0.987,5.662-2.714,11.136-5.104,16.221l7.509,2.806 c1.698-5.797,2.631-11.748,2.814-17.669c0.107,0.076,0.215,0.152,0.324,0.225c3.142,2.114,6.863,3.232,10.607,3.796 C76.352,88.379,91.161,82.628,100,71.71C96.061,69.427,91.816,67.684,87.422,66.495z" style="fill:rgb(248, 97, 97);transform:matrix(0.563592, 0, 0, 0.563592, 0, 0);;animation:none"></path></g>
<g transform="matrix(1,0,0,1,31.547332763671875,335.7281799316406) matrix(-0.7702657819476093,0.6377230003384212,-0.6377230003384212,-0.7702657819476093,120.39943911430153,56.6271390804594)" style="transform:matrix(-0.770266, 0.637723, -0.637723, -0.770266, 151.947, 392.355);;animation:none"><path transform="matrix(0.5736715197563171,0,0,0.5736715197563171,0,0)" fill="#ffc46c" d="M87.422,66.495c-2.009-0.544-4.049-0.97-6.107-1.283c10.617-11.116,15.747-27.37,13.129-42.549 c-5.236,1.77-10.223,4.252-14.824,7.313c-4.13,2.747-7.948,5.961-11.374,9.55C67.425,24.863,61.344,10.451,50.991,0 c-4.015,5.451-7.281,11.444-9.753,17.744c-3.579,9.122-5.501,18.893-5.669,28.691c-4.79-7.979-11.256-14.955-18.858-20.322 c-4.514-3.187-9.431-5.806-14.616-7.72c-3.361,16.717,2.731,35.015,15.445,46.379c0.369,0.33,0.745,0.654,1.126,0.972 c-2.359,0.411-4.689,0.983-6.969,1.714C7.582,68.775,3.634,70.61,0,72.945c8.85,9.963,23.134,14.771,36.208,12.186 c3.524-0.697,7.002-1.919,9.887-4.057c0.073-0.054,0.145-0.111,0.218-0.167c-0.987,5.662-2.714,11.136-5.104,16.221l7.509,2.806 c1.698-5.797,2.631-11.748,2.814-17.669c0.107,0.076,0.215,0.152,0.324,0.225c3.142,2.114,6.863,3.232,10.607,3.796 C76.352,88.379,91.161,82.628,100,71.71C96.061,69.427,91.816,67.684,87.422,66.495z" style="fill:rgb(255, 196, 108);transform:matrix(0.573672, 0, 0, 0.573672, 0, 0);;animation:none"></path></g>
<g transform="matrix(1,0,0,1,142.30926513671875,342.1476745605469) matrix(0.12782196377848629,-0.9917971292435824,0.9917971292435824,0.12782196377848629,-5.980954651103431,93.19875827325481)" style="transform:matrix(0.127822, -0.991797, 0.991797, 0.127822, 136.328, 435.346);;animation:none"><path transform="matrix(0.7374984622001648,0,0,0.7374984622001648,0,0)" fill="#ffc46c" d="M87.422,66.495c-2.009-0.544-4.049-0.97-6.107-1.283c10.617-11.116,15.747-27.37,13.129-42.549 c-5.236,1.77-10.223,4.252-14.824,7.313c-4.13,2.747-7.948,5.961-11.374,9.55C67.425,24.863,61.344,10.451,50.991,0 c-4.015,5.451-7.281,11.444-9.753,17.744c-3.579,9.122-5.501,18.893-5.669,28.691c-4.79-7.979-11.256-14.955-18.858-20.322 c-4.514-3.187-9.431-5.806-14.616-7.72c-3.361,16.717,2.731,35.015,15.445,46.379c0.369,0.33,0.745,0.654,1.126,0.972 c-2.359,0.411-4.689,0.983-6.969,1.714C7.582,68.775,3.634,70.61,0,72.945c8.85,9.963,23.134,14.771,36.208,12.186 c3.524-0.697,7.002-1.919,9.887-4.057c0.073-0.054,0.145-0.111,0.218-0.167c-0.987,5.662-2.714,11.136-5.104,16.221l7.509,2.806 c1.698-5.797,2.631-11.748,2.814-17.669c0.107,0.076,0.215,0.152,0.324,0.225c3.142,2.114,6.863,3.232,10.607,3.796 C76.352,88.379,91.161,82.628,100,71.71C96.061,69.427,91.816,67.684,87.422,66.495z" style="fill:rgb(255, 196, 108);transform:matrix(0.737498, 0, 0, 0.737498, 0, 0);;animation:none"></path></g>
<g transform="matrix(1,0,0,1,598.394775390625,734.7523803710938) matrix(-0.31761073515629135,-0.9482211877581518,0.9482211877581518,-0.31761073515629135,18.469477369906976,113.29159614572217)" style="transform:matrix(-0.317611, -0.948221, 0.948221, -0.317611, 616.864, 848.044);;animation:none"><path transform="matrix(1.1009970903396606,0,0,1.1009970903396606,0,0)" fill="#ff9f32" d="M87.422,66.495c-2.009-0.544-4.049-0.97-6.107-1.283c10.617-11.116,15.747-27.37,13.129-42.549 c-5.236,1.77-10.223,4.252-14.824,7.313c-4.13,2.747-7.948,5.961-11.374,9.55C67.425,24.863,61.344,10.451,50.991,0 c-4.015,5.451-7.281,11.444-9.753,17.744c-3.579,9.122-5.501,18.893-5.669,28.691c-4.79-7.979-11.256-14.955-18.858-20.322 c-4.514-3.187-9.431-5.806-14.616-7.72c-3.361,16.717,2.731,35.015,15.445,46.379c0.369,0.33,0.745,0.654,1.126,0.972 c-2.359,0.411-4.689,0.983-6.969,1.714C7.582,68.775,3.634,70.61,0,72.945c8.85,9.963,23.134,14.771,36.208,12.186 c3.524-0.697,7.002-1.919,9.887-4.057c0.073-0.054,0.145-0.111,0.218-0.167c-0.987,5.662-2.714,11.136-5.104,16.221l7.509,2.806 c1.698-5.797,2.631-11.748,2.814-17.669c0.107,0.076,0.215,0.152,0.324,0.225c3.142,2.114,6.863,3.232,10.607,3.796 C76.352,88.379,91.161,82.628,100,71.71C96.061,69.427,91.816,67.684,87.422,66.495z" style="fill:rgb(255, 159, 50);transform:matrix(1.101, 0, 0, 1.101, 0, 0);;animation:none"></path></g>
<g transform="matrix(1,0,0,1,648.3162231445312,1430.923095703125) matrix(-0.9766584598181257,-0.21479816774285249,0.21479816774285249,-0.9766584598181257,88.09301460376366,109.5728313780489)" style="transform:matrix(-0.976658, -0.214798, 0.214798, -0.976658, 736.409, 1540.5);;animation:none"><path transform="matrix(0.8738126158714294,0,0,0.8738126158714294,0,0)" fill="#ff9f32" d="M87.422,66.495c-2.009-0.544-4.049-0.97-6.107-1.283c10.617-11.116,15.747-27.37,13.129-42.549 c-5.236,1.77-10.223,4.252-14.824,7.313c-4.13,2.747-7.948,5.961-11.374,9.55C67.425,24.863,61.344,10.451,50.991,0 c-4.015,5.451-7.281,11.444-9.753,17.744c-3.579,9.122-5.501,18.893-5.669,28.691c-4.79-7.979-11.256-14.955-18.858-20.322 c-4.514-3.187-9.431-5.806-14.616-7.72c-3.361,16.717,2.731,35.015,15.445,46.379c0.369,0.33,0.745,0.654,1.126,0.972 c-2.359,0.411-4.689,0.983-6.969,1.714C7.582,68.775,3.634,70.61,0,72.945c8.85,9.963,23.134,14.771,36.208,12.186 c3.524-0.697,7.002-1.919,9.887-4.057c0.073-0.054,0.145-0.111,0.218-0.167c-0.987,5.662-2.714,11.136-5.104,16.221l7.509,2.806 c1.698-5.797,2.631-11.748,2.814-17.669c0.107,0.076,0.215,0.152,0.324,0.225c3.142,2.114,6.863,3.232,10.607,3.796 C76.352,88.379,91.161,82.628,100,71.71C96.061,69.427,91.816,67.684,87.422,66.495z" style="fill:rgb(255, 159, 50);transform:matrix(0.873813, 0, 0, 0.873813, 0, 0);;animation:none"></path></g>
<g transform="matrix(1,0,0,1,694.8657836914062,106.74111938476562) matrix(-0.40502972878054283,0.9143035156904735,-0.9143035156904735,-0.40502972878054283,115.96666222355081,24.536310654503467)" style="transform:matrix(-0.40503, 0.914304, -0.914304, -0.40503, 810.832, 131.277);;animation:none"><path transform="matrix(1.0027844905853271,0,0,1.0027844905853271,0,0)" fill="#f86161" d="M87.422,66.495c-2.009-0.544-4.049-0.97-6.107-1.283c10.617-11.116,15.747-27.37,13.129-42.549 c-5.236,1.77-10.223,4.252-14.824,7.313c-4.13,2.747-7.948,5.961-11.374,9.55C67.425,24.863,61.344,10.451,50.991,0 c-4.015,5.451-7.281,11.444-9.753,17.744c-3.579,9.122-5.501,18.893-5.669,28.691c-4.79-7.979-11.256-14.955-18.858-20.322 c-4.514-3.187-9.431-5.806-14.616-7.72c-3.361,16.717,2.731,35.015,15.445,46.379c0.369,0.33,0.745,0.654,1.126,0.972 c-2.359,0.411-4.689,0.983-6.969,1.714C7.582,68.775,3.634,70.61,0,72.945c8.85,9.963,23.134,14.771,36.208,12.186 c3.524-0.697,7.002-1.919,9.887-4.057c0.073-0.054,0.145-0.111,0.218-0.167c-0.987,5.662-2.714,11.136-5.104,16.221l7.509,2.806 c1.698-5.797,2.631-11.748,2.814-17.669c0.107,0.076,0.215,0.152,0.324,0.225c3.142,2.114,6.863,3.232,10.607,3.796 C76.352,88.379,91.161,82.628,100,71.71C96.061,69.427,91.816,67.684,87.422,66.495z" style="fill:rgb(248, 97, 97);transform:matrix(1.00278, 0, 0, 1.00278, 0, 0);;animation:none"></path></g>
<g transform="matrix(1,0,0,1,494.717529296875,1373.31787109375) matrix(0.2861718136171466,-0.9581783200903019,0.9581783200903019,0.2861718136171466,-12.21750668537242,83.60032532365776)" style="transform:matrix(0.286172, -0.958178, 0.958178, 0.286172, 482.5, 1456.92);;animation:none"><path transform="matrix(0.5095195174217224,0,0,0.5095195174217224,0,0)" fill="#ffc46c" d="M87.422,66.495c-2.009-0.544-4.049-0.97-6.107-1.283c10.617-11.116,15.747-27.37,13.129-42.549 c-5.236,1.77-10.223,4.252-14.824,7.313c-4.13,2.747-7.948,5.961-11.374,9.55C67.425,24.863,61.344,10.451,50.991,0 c-4.015,5.451-7.281,11.444-9.753,17.744c-3.579,9.122-5.501,18.893-5.669,28.691c-4.79-7.979-11.256-14.955-18.858-20.322 c-4.514-3.187-9.431-5.806-14.616-7.72c-3.361,16.717,2.731,35.015,15.445,46.379c0.369,0.33,0.745,0.654,1.126,0.972 c-2.359,0.411-4.689,0.983-6.969,1.714C7.582,68.775,3.634,70.61,0,72.945c8.85,9.963,23.134,14.771,36.208,12.186 c3.524-0.697,7.002-1.919,9.887-4.057c0.073-0.054,0.145-0.111,0.218-0.167c-0.987,5.662-2.714,11.136-5.104,16.221l7.509,2.806 c1.698-5.797,2.631-11.748,2.814-17.669c0.107,0.076,0.215,0.152,0.324,0.225c3.142,2.114,6.863,3.232,10.607,3.796 C76.352,88.379,91.161,82.628,100,71.71C96.061,69.427,91.816,67.684,87.422,66.495z" style="fill:rgb(255, 196, 108);transform:matrix(0.50952, 0, 0, 0.50952, 0, 0);;animation:none"></path></g>
<g transform="matrix(1,0,0,1,98.32171630859375,471.0517578125) matrix(0.9157785466800205,0.4016835239845289,-0.4016835239845289,0.9157785466800205,24.29524886522542,-15.873103533227464)" style="transform:matrix(0.915779, 0.401684, -0.401684, 0.915779, 122.617, 455.179);;animation:none"><path transform="matrix(0.6045255661010742,0,0,0.6045255661010742,0,0)" fill="#ff956e" d="M87.422,66.495c-2.009-0.544-4.049-0.97-6.107-1.283c10.617-11.116,15.747-27.37,13.129-42.549 c-5.236,1.77-10.223,4.252-14.824,7.313c-4.13,2.747-7.948,5.961-11.374,9.55C67.425,24.863,61.344,10.451,50.991,0 c-4.015,5.451-7.281,11.444-9.753,17.744c-3.579,9.122-5.501,18.893-5.669,28.691c-4.79-7.979-11.256-14.955-18.858-20.322 c-4.514-3.187-9.431-5.806-14.616-7.72c-3.361,16.717,2.731,35.015,15.445,46.379c0.369,0.33,0.745,0.654,1.126,0.972 c-2.359,0.411-4.689,0.983-6.969,1.714C7.582,68.775,3.634,70.61,0,72.945c8.85,9.963,23.134,14.771,36.208,12.186 c3.524-0.697,7.002-1.919,9.887-4.057c0.073-0.054,0.145-0.111,0.218-0.167c-0.987,5.662-2.714,11.136-5.104,16.221l7.509,2.806 c1.698-5.797,2.631-11.748,2.814-17.669c0.107,0.076,0.215,0.152,0.324,0.225c3.142,2.114,6.863,3.232,10.607,3.796 C76.352,88.379,91.161,82.628,100,71.71C96.061,69.427,91.816,67.684,87.422,66.495z" style="fill:rgb(255, 149, 110);transform:matrix(0.604526, 0, 0, 0.604526, 0, 0);;animation:none"></path></g>
<g transform="matrix(1,0,0,1,553.9597778320312,125.90608215332031) matrix(0.9938920895112323,0.11035630660273406,-0.11035630660273406,0.9938920895112323,5.8232108545750805,-5.2124198056983175)" style="transform:matrix(0.993892, 0.110356, -0.110356, 0.993892, 559.783, 120.694);;animation:none"><path transform="matrix(0.5824858546257019,0,0,0.5824858546257019,0,0)" fill="#ff956e" d="M87.422,66.495c-2.009-0.544-4.049-0.97-6.107-1.283c10.617-11.116,15.747-27.37,13.129-42.549 c-5.236,1.77-10.223,4.252-14.824,7.313c-4.13,2.747-7.948,5.961-11.374,9.55C67.425,24.863,61.344,10.451,50.991,0 c-4.015,5.451-7.281,11.444-9.753,17.744c-3.579,9.122-5.501,18.893-5.669,28.691c-4.79-7.979-11.256-14.955-18.858-20.322 c-4.514-3.187-9.431-5.806-14.616-7.72c-3.361,16.717,2.731,35.015,15.445,46.379c0.369,0.33,0.745,0.654,1.126,0.972 c-2.359,0.411-4.689,0.983-6.969,1.714C7.582,68.775,3.634,70.61,0,72.945c8.85,9.963,23.134,14.771,36.208,12.186 c3.524-0.697,7.002-1.919,9.887-4.057c0.073-0.054,0.145-0.111,0.218-0.167c-0.987,5.662-2.714,11.136-5.104,16.221l7.509,2.806 c1.698-5.797,2.631-11.748,2.814-17.669c0.107,0.076,0.215,0.152,0.324,0.225c3.142,2.114,6.863,3.232,10.607,3.796 C76.352,88.379,91.161,82.628,100,71.71C96.061,69.427,91.816,67.684,87.422,66.495z" style="fill:rgb(255, 149, 110);transform:matrix(0.582486, 0, 0, 0.582486, 0, 0);;animation:none"></path></g>
<g transform="matrix(1,0,0,1,231.02789306640625,-4.810722351074219) matrix(0.5427555939164348,0.8398906865017721,-0.8398906865017721,0.5427555939164348,64.85675462926687,-19.132314020910343)" style="transform:matrix(0.542756, 0.839891, -0.839891, 0.542756, 295.885, -23.943);;animation:none"><path transform="matrix(0.7488348484039307,0,0,0.7488348484039307,0,0)" fill="#f86161" d="M87.422,66.495c-2.009-0.544-4.049-0.97-6.107-1.283c10.617-11.116,15.747-27.37,13.129-42.549 c-5.236,1.77-10.223,4.252-14.824,7.313c-4.13,2.747-7.948,5.961-11.374,9.55C67.425,24.863,61.344,10.451,50.991,0 c-4.015,5.451-7.281,11.444-9.753,17.744c-3.579,9.122-5.501,18.893-5.669,28.691c-4.79-7.979-11.256-14.955-18.858-20.322 c-4.514-3.187-9.431-5.806-14.616-7.72c-3.361,16.717,2.731,35.015,15.445,46.379c0.369,0.33,0.745,0.654,1.126,0.972 c-2.359,0.411-4.689,0.983-6.969,1.714C7.582,68.775,3.634,70.61,0,72.945c8.85,9.963,23.134,14.771,36.208,12.186 c3.524-0.697,7.002-1.919,9.887-4.057c0.073-0.054,0.145-0.111,0.218-0.167c-0.987,5.662-2.714,11.136-5.104,16.221l7.509,2.806 c1.698-5.797,2.631-11.748,2.814-17.669c0.107,0.076,0.215,0.152,0.324,0.225c3.142,2.114,6.863,3.232,10.607,3.796 C76.352,88.379,91.161,82.628,100,71.71C96.061,69.427,91.816,67.684,87.422,66.495z" style="fill:rgb(248, 97, 97);transform:matrix(0.748835, 0, 0, 0.748835, 0, 0);;animation:none"></path></g>
<g transform="matrix(1,0,0,1,858.03857421875,485.56610107421875) matrix(0.6959828667666845,-0.7180583884108781,0.7180583884108781,0.6959828667666845,-20.702062758878128,51.10377608220968)" style="transform:matrix(0.695983, -0.718058, 0.718058, 0.695983, 837.337, 536.67);;animation:none"><path transform="matrix(0.9496433734893799,0,0,0.9496433734893799,0,0)" fill="#ff956e" d="M87.422,66.495c-2.009-0.544-4.049-0.97-6.107-1.283c10.617-11.116,15.747-27.37,13.129-42.549 c-5.236,1.77-10.223,4.252-14.824,7.313c-4.13,2.747-7.948,5.961-11.374,9.55C67.425,24.863,61.344,10.451,50.991,0 c-4.015,5.451-7.281,11.444-9.753,17.744c-3.579,9.122-5.501,18.893-5.669,28.691c-4.79-7.979-11.256-14.955-18.858-20.322 c-4.514-3.187-9.431-5.806-14.616-7.72c-3.361,16.717,2.731,35.015,15.445,46.379c0.369,0.33,0.745,0.654,1.126,0.972 c-2.359,0.411-4.689,0.983-6.969,1.714C7.582,68.775,3.634,70.61,0,72.945c8.85,9.963,23.134,14.771,36.208,12.186 c3.524-0.697,7.002-1.919,9.887-4.057c0.073-0.054,0.145-0.111,0.218-0.167c-0.987,5.662-2.714,11.136-5.104,16.221l7.509,2.806 c1.698-5.797,2.631-11.748,2.814-17.669c0.107,0.076,0.215,0.152,0.324,0.225c3.142,2.114,6.863,3.232,10.607,3.796 C76.352,88.379,91.161,82.628,100,71.71C96.061,69.427,91.816,67.684,87.422,66.495z" style="fill:rgb(255, 149, 110);transform:matrix(0.949643, 0, 0, 0.949643, 0, 0);;animation:none"></path></g>
<g transform="matrix(1,0,0,1,1483.51806640625,1252.985595703125) matrix(0.9999963996813901,-0.0026833978939964196,0.0026833978939964196,0.9999963996813901,-0.13398987876932722,0.13434991063031987)" style="transform:matrix(0.999996, -0.0026834, 0.0026834, 0.999996, 1483.38, 1253.12);;animation:none"><path transform="matrix(1.0715206861495972,0,0,1.0715206861495972,0,0)" fill="#ff9f32" d="M87.422,66.495c-2.009-0.544-4.049-0.97-6.107-1.283c10.617-11.116,15.747-27.37,13.129-42.549 c-5.236,1.77-10.223,4.252-14.824,7.313c-4.13,2.747-7.948,5.961-11.374,9.55C67.425,24.863,61.344,10.451,50.991,0 c-4.015,5.451-7.281,11.444-9.753,17.744c-3.579,9.122-5.501,18.893-5.669,28.691c-4.79-7.979-11.256-14.955-18.858-20.322 c-4.514-3.187-9.431-5.806-14.616-7.72c-3.361,16.717,2.731,35.015,15.445,46.379c0.369,0.33,0.745,0.654,1.126,0.972 c-2.359,0.411-4.689,0.983-6.969,1.714C7.582,68.775,3.634,70.61,0,72.945c8.85,9.963,23.134,14.771,36.208,12.186 c3.524-0.697,7.002-1.919,9.887-4.057c0.073-0.054,0.145-0.111,0.218-0.167c-0.987,5.662-2.714,11.136-5.104,16.221l7.509,2.806 c1.698-5.797,2.631-11.748,2.814-17.669c0.107,0.076,0.215,0.152,0.324,0.225c3.142,2.114,6.863,3.232,10.607,3.796 C76.352,88.379,91.161,82.628,100,71.71C96.061,69.427,91.816,67.684,87.422,66.495z" style="fill:rgb(255, 159, 50);transform:matrix(1.07152, 0, 0, 1.07152, 0, 0);;animation:none"></path></g>
<g transform="matrix(1,0,0,1,794.7413330078125,1024.92919921875) matrix(-0.6147107820367648,0.7887525939404251,-0.7887525939404251,-0.6147107820367648,120.17316879885949,41.29790940481699)" style="transform:matrix(-0.614711, 0.788753, -0.788753, -0.614711, 914.914, 1066.23);;animation:none"><path transform="matrix(0.6782734990119934,0,0,0.6782734990119934,0,0)" fill="#ff9f32" d="M87.422,66.495c-2.009-0.544-4.049-0.97-6.107-1.283c10.617-11.116,15.747-27.37,13.129-42.549 c-5.236,1.77-10.223,4.252-14.824,7.313c-4.13,2.747-7.948,5.961-11.374,9.55C67.425,24.863,61.344,10.451,50.991,0 c-4.015,5.451-7.281,11.444-9.753,17.744c-3.579,9.122-5.501,18.893-5.669,28.691c-4.79-7.979-11.256-14.955-18.858-20.322 c-4.514-3.187-9.431-5.806-14.616-7.72c-3.361,16.717,2.731,35.015,15.445,46.379c0.369,0.33,0.745,0.654,1.126,0.972 c-2.359,0.411-4.689,0.983-6.969,1.714C7.582,68.775,3.634,70.61,0,72.945c8.85,9.963,23.134,14.771,36.208,12.186 c3.524-0.697,7.002-1.919,9.887-4.057c0.073-0.054,0.145-0.111,0.218-0.167c-0.987,5.662-2.714,11.136-5.104,16.221l7.509,2.806 c1.698-5.797,2.631-11.748,2.814-17.669c0.107,0.076,0.215,0.152,0.324,0.225c3.142,2.114,6.863,3.232,10.607,3.796 C76.352,88.379,91.161,82.628,100,71.71C96.061,69.427,91.816,67.684,87.422,66.495z" style="fill:rgb(255, 159, 50);transform:matrix(0.678273, 0, 0, 0.678273, 0, 0);;animation:none"></path></g>
<g transform="matrix(1,0,0,1,234.24359130859375,807.0279541015625) matrix(-0.9396032338679109,-0.34226563208269095,0.34226563208269095,-0.9396032338679109,79.866880089261,114.09344329753009)" style="transform:matrix(-0.939603, -0.342266, 0.342266, -0.939603, 314.11, 921.121);;animation:none"><path transform="matrix(0.6103938817977905,0,0,0.6103938817977905,0,0)" fill="#f86161" d="M87.422,66.495c-2.009-0.544-4.049-0.97-6.107-1.283c10.617-11.116,15.747-27.37,13.129-42.549 c-5.236,1.77-10.223,4.252-14.824,7.313c-4.13,2.747-7.948,5.961-11.374,9.55C67.425,24.863,61.344,10.451,50.991,0 c-4.015,5.451-7.281,11.444-9.753,17.744c-3.579,9.122-5.501,18.893-5.669,28.691c-4.79-7.979-11.256-14.955-18.858-20.322 c-4.514-3.187-9.431-5.806-14.616-7.72c-3.361,16.717,2.731,35.015,15.445,46.379c0.369,0.33,0.745,0.654,1.126,0.972 c-2.359,0.411-4.689,0.983-6.969,1.714C7.582,68.775,3.634,70.61,0,72.945c8.85,9.963,23.134,14.771,36.208,12.186 c3.524-0.697,7.002-1.919,9.887-4.057c0.073-0.054,0.145-0.111,0.218-0.167c-0.987,5.662-2.714,11.136-5.104,16.221l7.509,2.806 c1.698-5.797,2.631-11.748,2.814-17.669c0.107,0.076,0.215,0.152,0.324,0.225c3.142,2.114,6.863,3.232,10.607,3.796 C76.352,88.379,91.161,82.628,100,71.71C96.061,69.427,91.816,67.684,87.422,66.495z" style="fill:rgb(248, 97, 97);transform:matrix(0.610394, 0, 0, 0.610394, 0, 0);;animation:none"></path></g>
<g transform="matrix(1,0,0,1,-59.601070404052734,473.10870361328125) matrix(0.6985041856471481,0.7156059688357933,-0.7156059688357933,0.6985041856471481,50.85508915943226,-20.705507724147083)" style="transform:matrix(0.698504, 0.715606, -0.715606, 0.698504, -8.74598, 452.403);;animation:none"><path transform="matrix(1.0323741436004639,0,0,1.0323741436004639,0,0)" fill="#f86161" d="M87.422,66.495c-2.009-0.544-4.049-0.97-6.107-1.283c10.617-11.116,15.747-27.37,13.129-42.549 c-5.236,1.77-10.223,4.252-14.824,7.313c-4.13,2.747-7.948,5.961-11.374,9.55C67.425,24.863,61.344,10.451,50.991,0 c-4.015,5.451-7.281,11.444-9.753,17.744c-3.579,9.122-5.501,18.893-5.669,28.691c-4.79-7.979-11.256-14.955-18.858-20.322 c-4.514-3.187-9.431-5.806-14.616-7.72c-3.361,16.717,2.731,35.015,15.445,46.379c0.369,0.33,0.745,0.654,1.126,0.972 c-2.359,0.411-4.689,0.983-6.969,1.714C7.582,68.775,3.634,70.61,0,72.945c8.85,9.963,23.134,14.771,36.208,12.186 c3.524-0.697,7.002-1.919,9.887-4.057c0.073-0.054,0.145-0.111,0.218-0.167c-0.987,5.662-2.714,11.136-5.104,16.221l7.509,2.806 c1.698-5.797,2.631-11.748,2.814-17.669c0.107,0.076,0.215,0.152,0.324,0.225c3.142,2.114,6.863,3.232,10.607,3.796 C76.352,88.379,91.161,82.628,100,71.71C96.061,69.427,91.816,67.684,87.422,66.495z" style="fill:rgb(248, 97, 97);transform:matrix(1.03237, 0, 0, 1.03237, 0, 0);;animation:none"></path></g>
<g transform="matrix(1,0,0,1,481.4482421875,1168.96142578125) matrix(-0.18017510100112777,0.9836345525545722,-0.9836345525545722,-0.18017510100112777,108.190482677785,9.827027422327774)" style="transform:matrix(-0.180175, 0.983635, -0.983635, -0.180175, 589.639, 1178.79);;animation:none"><path transform="matrix(0.7614730596542358,0,0,0.7614730596542358,0,0)" fill="#f86161" d="M87.422,66.495c-2.009-0.544-4.049-0.97-6.107-1.283c10.617-11.116,15.747-27.37,13.129-42.549 c-5.236,1.77-10.223,4.252-14.824,7.313c-4.13,2.747-7.948,5.961-11.374,9.55C67.425,24.863,61.344,10.451,50.991,0 c-4.015,5.451-7.281,11.444-9.753,17.744c-3.579,9.122-5.501,18.893-5.669,28.691c-4.79-7.979-11.256-14.955-18.858-20.322 c-4.514-3.187-9.431-5.806-14.616-7.72c-3.361,16.717,2.731,35.015,15.445,46.379c0.369,0.33,0.745,0.654,1.126,0.972 c-2.359,0.411-4.689,0.983-6.969,1.714C7.582,68.775,3.634,70.61,0,72.945c8.85,9.963,23.134,14.771,36.208,12.186 c3.524-0.697,7.002-1.919,9.887-4.057c0.073-0.054,0.145-0.111,0.218-0.167c-0.987,5.662-2.714,11.136-5.104,16.221l7.509,2.806 c1.698-5.797,2.631-11.748,2.814-17.669c0.107,0.076,0.215,0.152,0.324,0.225c3.142,2.114,6.863,3.232,10.607,3.796 C76.352,88.379,91.161,82.628,100,71.71C96.061,69.427,91.816,67.684,87.422,66.495z" style="fill:rgb(248, 97, 97);transform:matrix(0.761473, 0, 0, 0.761473, 0, 0);;animation:none"></path></g>
<g transform="matrix(1,0,0,1,478.966552734375,1076.23681640625) matrix(-0.9146512614010874,-0.40424382495889744,0.40424382495889744,-0.9146512614010874,75.5203718221095,115.94475431799924)" style="transform:matrix(-0.914651, -0.404244, 0.404244, -0.914651, 554.487, 1192.18);;animation:none"><path transform="matrix(1.0009137392044067,0,0,1.0009137392044067,0,0)" fill="#ff956e" d="M87.422,66.495c-2.009-0.544-4.049-0.97-6.107-1.283c10.617-11.116,15.747-27.37,13.129-42.549 c-5.236,1.77-10.223,4.252-14.824,7.313c-4.13,2.747-7.948,5.961-11.374,9.55C67.425,24.863,61.344,10.451,50.991,0 c-4.015,5.451-7.281,11.444-9.753,17.744c-3.579,9.122-5.501,18.893-5.669,28.691c-4.79-7.979-11.256-14.955-18.858-20.322 c-4.514-3.187-9.431-5.806-14.616-7.72c-3.361,16.717,2.731,35.015,15.445,46.379c0.369,0.33,0.745,0.654,1.126,0.972 c-2.359,0.411-4.689,0.983-6.969,1.714C7.582,68.775,3.634,70.61,0,72.945c8.85,9.963,23.134,14.771,36.208,12.186 c3.524-0.697,7.002-1.919,9.887-4.057c0.073-0.054,0.145-0.111,0.218-0.167c-0.987,5.662-2.714,11.136-5.104,16.221l7.509,2.806 c1.698-5.797,2.631-11.748,2.814-17.669c0.107,0.076,0.215,0.152,0.324,0.225c3.142,2.114,6.863,3.232,10.607,3.796 C76.352,88.379,91.161,82.628,100,71.71C96.061,69.427,91.816,67.684,87.422,66.495z" style="fill:rgb(255, 149, 110);transform:matrix(1.00091, 0, 0, 1.00091, 0, 0);;animation:none"></path></g>
<g transform="matrix(1,0,0,1,509.144287109375,174.66128540039062) matrix(-0.6422715227069469,0.7664771954335626,-0.7664771954335626,-0.6422715227069469,120.43743590702547,43.789716363669214)" style="transform:matrix(-0.642272, 0.766477, -0.766477, -0.642272, 629.582, 218.451);;animation:none"><path transform="matrix(0.7858489751815796,0,0,0.7858489751815796,0,0)" fill="#ffc46c" d="M87.422,66.495c-2.009-0.544-4.049-0.97-6.107-1.283c10.617-11.116,15.747-27.37,13.129-42.549 c-5.236,1.77-10.223,4.252-14.824,7.313c-4.13,2.747-7.948,5.961-11.374,9.55C67.425,24.863,61.344,10.451,50.991,0 c-4.015,5.451-7.281,11.444-9.753,17.744c-3.579,9.122-5.501,18.893-5.669,28.691c-4.79-7.979-11.256-14.955-18.858-20.322 c-4.514-3.187-9.431-5.806-14.616-7.72c-3.361,16.717,2.731,35.015,15.445,46.379c0.369,0.33,0.745,0.654,1.126,0.972 c-2.359,0.411-4.689,0.983-6.969,1.714C7.582,68.775,3.634,70.61,0,72.945c8.85,9.963,23.134,14.771,36.208,12.186 c3.524-0.697,7.002-1.919,9.887-4.057c0.073-0.054,0.145-0.111,0.218-0.167c-0.987,5.662-2.714,11.136-5.104,16.221l7.509,2.806 c1.698-5.797,2.631-11.748,2.814-17.669c0.107,0.076,0.215,0.152,0.324,0.225c3.142,2.114,6.863,3.232,10.607,3.796 C76.352,88.379,91.161,82.628,100,71.71C96.061,69.427,91.816,67.684,87.422,66.495z" style="fill:rgb(255, 196, 108);transform:matrix(0.785849, 0, 0, 0.785849, 0, 0);;animation:none"></path></g>
<g transform="matrix(1,0,0,1,343.0009765625,1352.586669921875) matrix(-0.27423521008158375,0.961662648516365,-0.961662648516365,-0.27423521008158375,111.79489292989743,15.628628078260938)" style="transform:matrix(-0.274235, 0.961663, -0.961663, -0.274235, 454.796, 1368.22);;animation:none"><path transform="matrix(0.7316814661026001,0,0,0.7316814661026001,0,0)" fill="#ffc46c" d="M87.422,66.495c-2.009-0.544-4.049-0.97-6.107-1.283c10.617-11.116,15.747-27.37,13.129-42.549 c-5.236,1.77-10.223,4.252-14.824,7.313c-4.13,2.747-7.948,5.961-11.374,9.55C67.425,24.863,61.344,10.451,50.991,0 c-4.015,5.451-7.281,11.444-9.753,17.744c-3.579,9.122-5.501,18.893-5.669,28.691c-4.79-7.979-11.256-14.955-18.858-20.322 c-4.514-3.187-9.431-5.806-14.616-7.72c-3.361,16.717,2.731,35.015,15.445,46.379c0.369,0.33,0.745,0.654,1.126,0.972 c-2.359,0.411-4.689,0.983-6.969,1.714C7.582,68.775,3.634,70.61,0,72.945c8.85,9.963,23.134,14.771,36.208,12.186 c3.524-0.697,7.002-1.919,9.887-4.057c0.073-0.054,0.145-0.111,0.218-0.167c-0.987,5.662-2.714,11.136-5.104,16.221l7.509,2.806 c1.698-5.797,2.631-11.748,2.814-17.669c0.107,0.076,0.215,0.152,0.324,0.225c3.142,2.114,6.863,3.232,10.607,3.796 C76.352,88.379,91.161,82.628,100,71.71C96.061,69.427,91.816,67.684,87.422,66.495z" style="fill:rgb(255, 196, 108);transform:matrix(0.731681, 0, 0, 0.731681, 0, 0);;animation:none"></path></g>
<g transform="matrix(1,0,0,1,346.78961181640625,596.8115234375) matrix(0.6608598931570651,0.750509294823477,-0.750509294823477,0.6608598931570651,54.48247008332059,-20.568459399027105)" style="transform:matrix(0.66086, 0.750509, -0.750509, 0.66086, 401.272, 576.243);;animation:none"><path transform="matrix(0.9830710291862488,0,0,0.9830710291862488,0,0)" fill="#f86161" d="M87.422,66.495c-2.009-0.544-4.049-0.97-6.107-1.283c10.617-11.116,15.747-27.37,13.129-42.549 c-5.236,1.77-10.223,4.252-14.824,7.313c-4.13,2.747-7.948,5.961-11.374,9.55C67.425,24.863,61.344,10.451,50.991,0 c-4.015,5.451-7.281,11.444-9.753,17.744c-3.579,9.122-5.501,18.893-5.669,28.691c-4.79-7.979-11.256-14.955-18.858-20.322 c-4.514-3.187-9.431-5.806-14.616-7.72c-3.361,16.717,2.731,35.015,15.445,46.379c0.369,0.33,0.745,0.654,1.126,0.972 c-2.359,0.411-4.689,0.983-6.969,1.714C7.582,68.775,3.634,70.61,0,72.945c8.85,9.963,23.134,14.771,36.208,12.186 c3.524-0.697,7.002-1.919,9.887-4.057c0.073-0.054,0.145-0.111,0.218-0.167c-0.987,5.662-2.714,11.136-5.104,16.221l7.509,2.806 c1.698-5.797,2.631-11.748,2.814-17.669c0.107,0.076,0.215,0.152,0.324,0.225c3.142,2.114,6.863,3.232,10.607,3.796 C76.352,88.379,91.161,82.628,100,71.71C96.061,69.427,91.816,67.684,87.422,66.495z" style="fill:rgb(248, 97, 97);transform:matrix(0.983071, 0, 0, 0.983071, 0, 0);;animation:none"></path></g>
<g transform="matrix(1,0,0,1,469.2386474609375,-25.23035430908203) matrix(0.9422094150686373,0.33502450381429777,-0.33502450381429777,0.9422094150686373,19.640754437283018,-13.86169594414676)" style="transform:matrix(0.942209, 0.335025, -0.335025, 0.942209, 488.879, -39.0921);;animation:none"><path transform="matrix(0.9187472462654114,0,0,0.9187472462654114,0,0)" fill="#ff9f32" d="M87.422,66.495c-2.009-0.544-4.049-0.97-6.107-1.283c10.617-11.116,15.747-27.37,13.129-42.549 c-5.236,1.77-10.223,4.252-14.824,7.313c-4.13,2.747-7.948,5.961-11.374,9.55C67.425,24.863,61.344,10.451,50.991,0 c-4.015,5.451-7.281,11.444-9.753,17.744c-3.579,9.122-5.501,18.893-5.669,28.691c-4.79-7.979-11.256-14.955-18.858-20.322 c-4.514-3.187-9.431-5.806-14.616-7.72c-3.361,16.717,2.731,35.015,15.445,46.379c0.369,0.33,0.745,0.654,1.126,0.972 c-2.359,0.411-4.689,0.983-6.969,1.714C7.582,68.775,3.634,70.61,0,72.945c8.85,9.963,23.134,14.771,36.208,12.186 c3.524-0.697,7.002-1.919,9.887-4.057c0.073-0.054,0.145-0.111,0.218-0.167c-0.987,5.662-2.714,11.136-5.104,16.221l7.509,2.806 c1.698-5.797,2.631-11.748,2.814-17.669c0.107,0.076,0.215,0.152,0.324,0.225c3.142,2.114,6.863,3.232,10.607,3.796 C76.352,88.379,91.161,82.628,100,71.71C96.061,69.427,91.816,67.684,87.422,66.495z" style="fill:rgb(255, 159, 50);transform:matrix(0.918747, 0, 0, 0.918747, 0, 0);;animation:none"></path></g>
<g transform="matrix(1,0,0,1,431.338623046875,1368.406982421875) matrix(-0.19440593341206622,-0.9809211655654002,0.9809211655654002,-0.19440593341206622,10.6742383923333,108.76635494887333)" style="transform:matrix(-0.194406, -0.980921, 0.980921, -0.194406, 442.013, 1477.17);;animation:none"><path transform="matrix(0.6083042025566101,0,0,0.6083042025566101,0,0)" fill="#f86161" d="M87.422,66.495c-2.009-0.544-4.049-0.97-6.107-1.283c10.617-11.116,15.747-27.37,13.129-42.549 c-5.236,1.77-10.223,4.252-14.824,7.313c-4.13,2.747-7.948,5.961-11.374,9.55C67.425,24.863,61.344,10.451,50.991,0 c-4.015,5.451-7.281,11.444-9.753,17.744c-3.579,9.122-5.501,18.893-5.669,28.691c-4.79-7.979-11.256-14.955-18.858-20.322 c-4.514-3.187-9.431-5.806-14.616-7.72c-3.361,16.717,2.731,35.015,15.445,46.379c0.369,0.33,0.745,0.654,1.126,0.972 c-2.359,0.411-4.689,0.983-6.969,1.714C7.582,68.775,3.634,70.61,0,72.945c8.85,9.963,23.134,14.771,36.208,12.186 c3.524-0.697,7.002-1.919,9.887-4.057c0.073-0.054,0.145-0.111,0.218-0.167c-0.987,5.662-2.714,11.136-5.104,16.221l7.509,2.806 c1.698-5.797,2.631-11.748,2.814-17.669c0.107,0.076,0.215,0.152,0.324,0.225c3.142,2.114,6.863,3.232,10.607,3.796 C76.352,88.379,91.161,82.628,100,71.71C96.061,69.427,91.816,67.684,87.422,66.495z" style="fill:rgb(248, 97, 97);transform:matrix(0.608304, 0, 0, 0.608304, 0, 0);;animation:none"></path></g>
<g transform="matrix(1,0,0,1,-33.09205627441406,399.255859375) matrix(0.20043387759328218,0.9797072321428076,-0.9797072321428076,0.20043387759328218,88.96366772747628,-9.00705548680449)" style="transform:matrix(0.200434, 0.979707, -0.979707, 0.200434, 55.8716, 390.249);;animation:none"><path transform="matrix(0.9798972010612488,0,0,0.9798972010612488,0,0)" fill="#ffc46c" d="M87.422,66.495c-2.009-0.544-4.049-0.97-6.107-1.283c10.617-11.116,15.747-27.37,13.129-42.549 c-5.236,1.77-10.223,4.252-14.824,7.313c-4.13,2.747-7.948,5.961-11.374,9.55C67.425,24.863,61.344,10.451,50.991,0 c-4.015,5.451-7.281,11.444-9.753,17.744c-3.579,9.122-5.501,18.893-5.669,28.691c-4.79-7.979-11.256-14.955-18.858-20.322 c-4.514-3.187-9.431-5.806-14.616-7.72c-3.361,16.717,2.731,35.015,15.445,46.379c0.369,0.33,0.745,0.654,1.126,0.972 c-2.359,0.411-4.689,0.983-6.969,1.714C7.582,68.775,3.634,70.61,0,72.945c8.85,9.963,23.134,14.771,36.208,12.186 c3.524-0.697,7.002-1.919,9.887-4.057c0.073-0.054,0.145-0.111,0.218-0.167c-0.987,5.662-2.714,11.136-5.104,16.221l7.509,2.806 c1.698-5.797,2.631-11.748,2.814-17.669c0.107,0.076,0.215,0.152,0.324,0.225c3.142,2.114,6.863,3.232,10.607,3.796 C76.352,88.379,91.161,82.628,100,71.71C96.061,69.427,91.816,67.684,87.422,66.495z" style="fill:rgb(255, 196, 108);transform:matrix(0.979897, 0, 0, 0.979897, 0, 0);;animation:none"></path></g>
<g transform="matrix(1,0,0,1,364.830322265625,1262.036865234375) matrix(0.9470797383659926,0.3209983943520637,-0.3209983943520637,0.9470797383659926,18.69593279930356,-13.403906635902814)" style="transform:matrix(0.94708, 0.320998, -0.320998, 0.94708, 383.526, 1248.63);;animation:none"><path transform="matrix(0.8164095282554626,0,0,0.8164095282554626,0,0)" fill="#ff9f32" d="M87.422,66.495c-2.009-0.544-4.049-0.97-6.107-1.283c10.617-11.116,15.747-27.37,13.129-42.549 c-5.236,1.77-10.223,4.252-14.824,7.313c-4.13,2.747-7.948,5.961-11.374,9.55C67.425,24.863,61.344,10.451,50.991,0 c-4.015,5.451-7.281,11.444-9.753,17.744c-3.579,9.122-5.501,18.893-5.669,28.691c-4.79-7.979-11.256-14.955-18.858-20.322 c-4.514-3.187-9.431-5.806-14.616-7.72c-3.361,16.717,2.731,35.015,15.445,46.379c0.369,0.33,0.745,0.654,1.126,0.972 c-2.359,0.411-4.689,0.983-6.969,1.714C7.582,68.775,3.634,70.61,0,72.945c8.85,9.963,23.134,14.771,36.208,12.186 c3.524-0.697,7.002-1.919,9.887-4.057c0.073-0.054,0.145-0.111,0.218-0.167c-0.987,5.662-2.714,11.136-5.104,16.221l7.509,2.806 c1.698-5.797,2.631-11.748,2.814-17.669c0.107,0.076,0.215,0.152,0.324,0.225c3.142,2.114,6.863,3.232,10.607,3.796 C76.352,88.379,91.161,82.628,100,71.71C96.061,69.427,91.816,67.684,87.422,66.495z" style="fill:rgb(255, 159, 50);transform:matrix(0.81641, 0, 0, 0.81641, 0, 0);;animation:none"></path></g>
<g transform="matrix(1,0,0,1,99.27322387695312,501.376953125) matrix(-0.548418278689947,0.8362041566500107,-0.8362041566500107,-0.548418278689947,119.23112176699789,35.61070610199681)" style="transform:matrix(-0.548418, 0.836204, -0.836204, -0.548418, 218.504, 536.988);;animation:none"><path transform="matrix(0.5260629653930664,0,0,0.5260629653930664,0,0)" fill="#ff956e" d="M87.422,66.495c-2.009-0.544-4.049-0.97-6.107-1.283c10.617-11.116,15.747-27.37,13.129-42.549 c-5.236,1.77-10.223,4.252-14.824,7.313c-4.13,2.747-7.948,5.961-11.374,9.55C67.425,24.863,61.344,10.451,50.991,0 c-4.015,5.451-7.281,11.444-9.753,17.744c-3.579,9.122-5.501,18.893-5.669,28.691c-4.79-7.979-11.256-14.955-18.858-20.322 c-4.514-3.187-9.431-5.806-14.616-7.72c-3.361,16.717,2.731,35.015,15.445,46.379c0.369,0.33,0.745,0.654,1.126,0.972 c-2.359,0.411-4.689,0.983-6.969,1.714C7.582,68.775,3.634,70.61,0,72.945c8.85,9.963,23.134,14.771,36.208,12.186 c3.524-0.697,7.002-1.919,9.887-4.057c0.073-0.054,0.145-0.111,0.218-0.167c-0.987,5.662-2.714,11.136-5.104,16.221l7.509,2.806 c1.698-5.797,2.631-11.748,2.814-17.669c0.107,0.076,0.215,0.152,0.324,0.225c3.142,2.114,6.863,3.232,10.607,3.796 C76.352,88.379,91.161,82.628,100,71.71C96.061,69.427,91.816,67.684,87.422,66.495z" style="fill:rgb(255, 149, 110);transform:matrix(0.526063, 0, 0, 0.526063, 0, 0);;animation:none"></path></g>
<g transform="matrix(1,0,0,1,556.1416625976562,605.3673706054688) matrix(-0.7811417742667858,-0.6243536886215519,0.6243536886215519,-0.7811417742667858,57.8394042822617,120.27477314441688)" style="transform:matrix(-0.781142, -0.624354, 0.624354, -0.781142, 613.981, 725.642);;animation:none"><path transform="matrix(0.5855021476745605,0,0,0.5855021476745605,0,0)" fill="#f86161" d="M87.422,66.495c-2.009-0.544-4.049-0.97-6.107-1.283c10.617-11.116,15.747-27.37,13.129-42.549 c-5.236,1.77-10.223,4.252-14.824,7.313c-4.13,2.747-7.948,5.961-11.374,9.55C67.425,24.863,61.344,10.451,50.991,0 c-4.015,5.451-7.281,11.444-9.753,17.744c-3.579,9.122-5.501,18.893-5.669,28.691c-4.79-7.979-11.256-14.955-18.858-20.322 c-4.514-3.187-9.431-5.806-14.616-7.72c-3.361,16.717,2.731,35.015,15.445,46.379c0.369,0.33,0.745,0.654,1.126,0.972 c-2.359,0.411-4.689,0.983-6.969,1.714C7.582,68.775,3.634,70.61,0,72.945c8.85,9.963,23.134,14.771,36.208,12.186 c3.524-0.697,7.002-1.919,9.887-4.057c0.073-0.054,0.145-0.111,0.218-0.167c-0.987,5.662-2.714,11.136-5.104,16.221l7.509,2.806 c1.698-5.797,2.631-11.748,2.814-17.669c0.107,0.076,0.215,0.152,0.324,0.225c3.142,2.114,6.863,3.232,10.607,3.796 C76.352,88.379,91.161,82.628,100,71.71C96.061,69.427,91.816,67.684,87.422,66.495z" style="fill:rgb(248, 97, 97);transform:matrix(0.585502, 0, 0, 0.585502, 0, 0);;animation:none"></path></g>
<g transform="matrix(1,0,0,1,-17.2275390625,344.1432189941406) matrix(-0.5143668955680313,0.8575702284616147,-0.8575702284616147,-0.5143668955680313,118.5968562014823,32.839833355320835)" style="transform:matrix(-0.514367, 0.85757, -0.85757, -0.514367, 101.369, 376.983);;animation:none"><path transform="matrix(0.5720227956771851,0,0,0.5720227956771851,0,0)" fill="#f86161" d="M87.422,66.495c-2.009-0.544-4.049-0.97-6.107-1.283c10.617-11.116,15.747-27.37,13.129-42.549 c-5.236,1.77-10.223,4.252-14.824,7.313c-4.13,2.747-7.948,5.961-11.374,9.55C67.425,24.863,61.344,10.451,50.991,0 c-4.015,5.451-7.281,11.444-9.753,17.744c-3.579,9.122-5.501,18.893-5.669,28.691c-4.79-7.979-11.256-14.955-18.858-20.322 c-4.514-3.187-9.431-5.806-14.616-7.72c-3.361,16.717,2.731,35.015,15.445,46.379c0.369,0.33,0.745,0.654,1.126,0.972 c-2.359,0.411-4.689,0.983-6.969,1.714C7.582,68.775,3.634,70.61,0,72.945c8.85,9.963,23.134,14.771,36.208,12.186 c3.524-0.697,7.002-1.919,9.887-4.057c0.073-0.054,0.145-0.111,0.218-0.167c-0.987,5.662-2.714,11.136-5.104,16.221l7.509,2.806 c1.698-5.797,2.631-11.748,2.814-17.669c0.107,0.076,0.215,0.152,0.324,0.225c3.142,2.114,6.863,3.232,10.607,3.796 C76.352,88.379,91.161,82.628,100,71.71C96.061,69.427,91.816,67.684,87.422,66.495z" style="fill:rgb(248, 97, 97);transform:matrix(0.572023, 0, 0, 0.572023, 0, 0);;animation:none"></path></g>
<g transform="matrix(1,0,0,1,635.7645263671875,236.0545654296875) matrix(-0.8893589328576421,0.45720967678551594,-0.45720967678551594,-0.8893589328576421,117.3284304821579,71.60746280360631)" style="transform:matrix(-0.889359, 0.45721, -0.45721, -0.889359, 753.093, 307.662);;animation:none"><path transform="matrix(0.6379825472831726,0,0,0.6379825472831726,0,0)" fill="#ff9f32" d="M87.422,66.495c-2.009-0.544-4.049-0.97-6.107-1.283c10.617-11.116,15.747-27.37,13.129-42.549 c-5.236,1.77-10.223,4.252-14.824,7.313c-4.13,2.747-7.948,5.961-11.374,9.55C67.425,24.863,61.344,10.451,50.991,0 c-4.015,5.451-7.281,11.444-9.753,17.744c-3.579,9.122-5.501,18.893-5.669,28.691c-4.79-7.979-11.256-14.955-18.858-20.322 c-4.514-3.187-9.431-5.806-14.616-7.72c-3.361,16.717,2.731,35.015,15.445,46.379c0.369,0.33,0.745,0.654,1.126,0.972 c-2.359,0.411-4.689,0.983-6.969,1.714C7.582,68.775,3.634,70.61,0,72.945c8.85,9.963,23.134,14.771,36.208,12.186 c3.524-0.697,7.002-1.919,9.887-4.057c0.073-0.054,0.145-0.111,0.218-0.167c-0.987,5.662-2.714,11.136-5.104,16.221l7.509,2.806 c1.698-5.797,2.631-11.748,2.814-17.669c0.107,0.076,0.215,0.152,0.324,0.225c3.142,2.114,6.863,3.232,10.607,3.796 C76.352,88.379,91.161,82.628,100,71.71C96.061,69.427,91.816,67.684,87.422,66.495z" style="fill:rgb(255, 159, 50);transform:matrix(0.637983, 0, 0, 0.637983, 0, 0);;animation:none"></path></g>
<g transform="matrix(1,0,0,1,733.222900390625,64.92208862304688) matrix(0.48947341988156823,0.8720182172577831,-0.8720182172577831,0.48947341988156823,69.12723986881073,-18.07458185696757)" style="transform:matrix(0.489473, 0.872018, -0.872018, 0.489473, 802.35, 46.8475);;animation:none"><path transform="matrix(0.641127347946167,0,0,0.641127347946167,0,0)" fill="#ff956e" d="M87.422,66.495c-2.009-0.544-4.049-0.97-6.107-1.283c10.617-11.116,15.747-27.37,13.129-42.549 c-5.236,1.77-10.223,4.252-14.824,7.313c-4.13,2.747-7.948,5.961-11.374,9.55C67.425,24.863,61.344,10.451,50.991,0 c-4.015,5.451-7.281,11.444-9.753,17.744c-3.579,9.122-5.501,18.893-5.669,28.691c-4.79-7.979-11.256-14.955-18.858-20.322 c-4.514-3.187-9.431-5.806-14.616-7.72c-3.361,16.717,2.731,35.015,15.445,46.379c0.369,0.33,0.745,0.654,1.126,0.972 c-2.359,0.411-4.689,0.983-6.969,1.714C7.582,68.775,3.634,70.61,0,72.945c8.85,9.963,23.134,14.771,36.208,12.186 c3.524-0.697,7.002-1.919,9.887-4.057c0.073-0.054,0.145-0.111,0.218-0.167c-0.987,5.662-2.714,11.136-5.104,16.221l7.509,2.806 c1.698-5.797,2.631-11.748,2.814-17.669c0.107,0.076,0.215,0.152,0.324,0.225c3.142,2.114,6.863,3.232,10.607,3.796 C76.352,88.379,91.161,82.628,100,71.71C96.061,69.427,91.816,67.684,87.422,66.495z" style="fill:rgb(255, 149, 110);transform:matrix(0.641127, 0, 0, 0.641127, 0, 0);;animation:none"></path></g>
<g transform="matrix(1,0,0,1,150.93148803710938,-98.06288146972656) matrix(0.9999364835593914,0.011270707470215292,-0.011270707470215292,0.9999364835593914,0.5667111955412025,-0.5603595514803317)" style="transform:matrix(0.999936, 0.0112707, -0.0112707, 0.999936, 151.498, -98.6232);;animation:none"><path transform="matrix(1.0849573612213135,0,0,1.0849573612213135,0,0)" fill="#ff9f32" d="M87.422,66.495c-2.009-0.544-4.049-0.97-6.107-1.283c10.617-11.116,15.747-27.37,13.129-42.549 c-5.236,1.77-10.223,4.252-14.824,7.313c-4.13,2.747-7.948,5.961-11.374,9.55C67.425,24.863,61.344,10.451,50.991,0 c-4.015,5.451-7.281,11.444-9.753,17.744c-3.579,9.122-5.501,18.893-5.669,28.691c-4.79-7.979-11.256-14.955-18.858-20.322 c-4.514-3.187-9.431-5.806-14.616-7.72c-3.361,16.717,2.731,35.015,15.445,46.379c0.369,0.33,0.745,0.654,1.126,0.972 c-2.359,0.411-4.689,0.983-6.969,1.714C7.582,68.775,3.634,70.61,0,72.945c8.85,9.963,23.134,14.771,36.208,12.186 c3.524-0.697,7.002-1.919,9.887-4.057c0.073-0.054,0.145-0.111,0.218-0.167c-0.987,5.662-2.714,11.136-5.104,16.221l7.509,2.806 c1.698-5.797,2.631-11.748,2.814-17.669c0.107,0.076,0.215,0.152,0.324,0.225c3.142,2.114,6.863,3.232,10.607,3.796 C76.352,88.379,91.161,82.628,100,71.71C96.061,69.427,91.816,67.684,87.422,66.495z" style="fill:rgb(255, 159, 50);transform:matrix(1.08496, 0, 0, 1.08496, 0, 0);;animation:none"></path></g>
<g transform="matrix(1,0,0,1,320.3367919921875,1404.73291015625) matrix(0.9996088469197082,0.02796700126669499,-0.02796700126669499,0.9996088469197082,1.4179077173493368,-1.3787924093201553)" style="transform:matrix(0.999609, 0.027967, -0.027967, 0.999609, 321.755, 1403.35);;animation:none"><path transform="matrix(0.5915462374687195,0,0,0.5915462374687195,0,0)" fill="#ffc46c" d="M87.422,66.495c-2.009-0.544-4.049-0.97-6.107-1.283c10.617-11.116,15.747-27.37,13.129-42.549 c-5.236,1.77-10.223,4.252-14.824,7.313c-4.13,2.747-7.948,5.961-11.374,9.55C67.425,24.863,61.344,10.451,50.991,0 c-4.015,5.451-7.281,11.444-9.753,17.744c-3.579,9.122-5.501,18.893-5.669,28.691c-4.79-7.979-11.256-14.955-18.858-20.322 c-4.514-3.187-9.431-5.806-14.616-7.72c-3.361,16.717,2.731,35.015,15.445,46.379c0.369,0.33,0.745,0.654,1.126,0.972 c-2.359,0.411-4.689,0.983-6.969,1.714C7.582,68.775,3.634,70.61,0,72.945c8.85,9.963,23.134,14.771,36.208,12.186 c3.524-0.697,7.002-1.919,9.887-4.057c0.073-0.054,0.145-0.111,0.218-0.167c-0.987,5.662-2.714,11.136-5.104,16.221l7.509,2.806 c1.698-5.797,2.631-11.748,2.814-17.669c0.107,0.076,0.215,0.152,0.324,0.225c3.142,2.114,6.863,3.232,10.607,3.796 C76.352,88.379,91.161,82.628,100,71.71C96.061,69.427,91.816,67.684,87.422,66.495z" style="fill:rgb(255, 196, 108);transform:matrix(0.591546, 0, 0, 0.591546, 0, 0);;animation:none"></path></g>
<g></g></g><!-- [ldio] generated by https://loading.io --></svg>